<svg version="1.1" id="Layer_1" xmlns="http://www.w3.org/2000/svg" xmlns:xlink="http://www.w3.org/1999/xlink" x="0px" y="0px"
	 width="100%" viewBox="0 0 496 239" enable-background="new 0 0 496 239" xml:space="preserve">
<path fill="none" opacity="0" stroke="none" 
	d="
M377.000000,240.000000 
	C251.375900,240.000000 126.251808,240.000000 1.063855,240.000000 
	C1.063855,160.403046 1.063855,80.806015 1.063855,1.104497 
	C166.333298,1.104497 331.666626,1.104497 496.979553,1.104497 
	C496.979553,80.748100 496.979553,160.374054 496.979553,240.000000 
	C457.139435,240.000000 417.319702,240.000000 377.000000,240.000000 
M78.370720,83.425507 
	C71.046654,85.107132 63.722595,86.788750 55.709755,88.628517 
	C55.709755,63.945465 55.709755,40.552864 55.709755,16.879942 
	C53.848145,17.048456 52.464378,17.173717 51.368225,17.272942 
	C51.368225,43.730415 51.368225,69.754471 51.368225,96.665154 
	C61.263371,94.237427 70.508263,91.468201 79.949577,89.833305 
	C85.996269,88.786240 92.401657,88.802612 98.516602,89.492073 
	C103.018456,89.999649 107.466927,92.037804 111.644844,94.015678 
	C114.795906,95.507423 117.319412,95.569969 120.455986,94.046211 
	C132.883392,88.008888 145.490509,86.145538 158.981918,91.323448 
	C165.773849,93.930130 173.297241,94.630951 180.789276,96.258652 
	C180.789276,69.282265 180.789276,43.211529 180.789276,17.070848 
	C179.402939,17.070848 178.242508,17.070848 176.457672,16.934198 
	C176.032089,16.924500 175.606522,16.914801 175.145538,16.059038 
	C175.461319,13.768546 174.931290,12.704925 172.189240,12.183334 
	C164.928986,10.802298 157.600082,9.335268 150.646790,6.905680 
	C142.749786,4.146353 135.400620,4.461148 127.398842,7.866230 
	C126.906258,8.177235 126.413673,8.488239 125.172417,8.874672 
	C122.344154,10.441507 118.001083,10.280479 118.011658,15.096705 
	C118.059883,37.061859 118.116600,59.026993 118.024429,81.788422 
	C118.515427,87.142166 118.515427,87.142166 115.049599,86.353500 
	C115.026367,85.890175 115.003136,85.426842 115.157928,84.045181 
	C115.152885,61.392246 115.096191,38.739052 115.211441,16.086731 
	C115.225082,13.405446 114.519951,12.002265 112.048431,10.779427 
	C101.754417,5.686245 91.676773,2.725328 80.124741,7.784325 
	C73.315971,10.766099 65.563263,11.592400 58.006611,13.444085 
	C58.006611,36.572414 58.003967,59.887333 58.020428,83.202248 
	C58.020882,83.845375 58.226471,84.488358 58.443150,85.755875 
	C64.900169,84.372581 71.208832,83.021072 78.099106,82.039268 
	C78.403214,82.370087 78.707321,82.700897 78.370720,83.425507 
M36.518875,190.455963 
	C36.519787,185.127380 36.522732,179.798798 36.521168,174.470215 
	C36.518337,164.811859 36.277977,155.143341 36.694401,145.503174 
	C36.784306,143.421860 38.861824,140.851669 40.751171,139.656372 
	C41.750858,139.023911 44.981609,140.356934 46.014141,141.710861 
	C47.486893,143.642044 48.569988,146.398529 48.599621,148.817444 
	C48.811104,166.078171 48.712467,183.342682 48.712467,200.712433 
	C55.546814,200.712433 61.934639,200.712433 68.672089,200.712433 
	C68.672089,198.782410 68.671585,197.145676 68.672165,195.508957 
	C68.678070,178.856644 68.843918,162.201599 68.561203,145.554199 
	C68.501564,142.042557 70.245544,140.269318 72.694901,139.742538 
	C74.418114,139.371918 77.281700,140.513779 78.377159,141.944351 
	C79.846275,143.862854 80.701805,146.694916 80.772331,149.164688 
	C81.095352,160.478134 80.889084,171.806580 81.202644,183.120483 
	C81.388969,189.843231 84.083031,195.783463 88.937813,200.453583 
	C89.965889,201.442551 92.722862,201.972443 93.835472,201.303589 
	C98.643242,198.413330 103.136147,194.999298 108.089729,191.533691 
	C101.792175,186.260468 100.704865,179.534546 100.817535,172.292175 
	C100.949608,163.801575 101.294998,155.272842 100.653122,146.828659 
	C100.318443,142.425690 98.907539,137.590408 96.450798,133.998032 
	C93.625023,129.866028 89.334312,126.593102 85.267212,123.487465 
	C79.694977,119.232506 76.685852,119.418198 70.927635,123.611092 
	C67.884941,125.826653 65.041504,128.315872 62.670525,130.227966 
	C57.464287,126.916435 53.061504,123.071732 47.937660,121.120186 
	C41.478165,118.659912 37.936569,125.514702 32.798069,127.965248 
	C31.091928,126.031418 29.622578,123.990417 27.758724,122.416641 
	C26.867378,121.664001 24.794516,121.125397 23.998140,121.639114 
	C19.062498,124.822914 14.337522,128.333282 9.242650,131.948059 
	C15.292432,136.991623 16.484177,143.211502 16.463486,149.920166 
	C16.427536,161.576645 16.462170,173.233353 16.465906,184.889954 
	C16.467604,190.180984 16.466194,195.472015 16.466194,200.685333 
	C23.418592,200.685333 29.817970,200.685333 36.518833,200.685333 
	C36.518833,197.388275 36.518833,194.412170 36.518875,190.455963 
M250.286591,174.500137 
	C250.291519,158.168457 250.465103,141.833725 250.171280,125.507423 
	C250.105804,121.870392 249.483002,117.242859 247.229919,114.842583 
	C241.584625,108.828529 235.133133,103.442818 228.401520,98.653305 
	C226.319183,97.171722 221.932938,97.532669 219.245163,98.628540 
	C215.329086,100.225220 211.995331,103.250107 208.549454,105.574257 
	C206.040710,102.671829 203.469147,99.696732 200.714569,96.509880 
	C194.443329,100.895691 188.620041,104.968231 182.276215,109.404808 
	C191.610031,118.850098 191.299026,130.569824 191.219727,142.301834 
	C191.102570,159.632645 191.179962,176.964783 191.174698,194.296356 
	C191.174057,196.410233 191.174622,198.524094 191.174622,200.615356 
	C198.390274,200.615356 205.092499,200.615356 211.888977,200.615356 
	C211.888977,175.730133 211.947693,151.237839 211.842865,126.746216 
	C211.819992,121.403473 215.301208,118.961334 219.291611,117.231087 
	C223.085068,115.586227 225.239899,118.867943 226.801453,121.450943 
	C228.180679,123.732315 229.190720,126.636299 229.213593,129.275345 
	C229.405670,151.438171 229.332687,173.603287 229.339386,195.767715 
	C229.339874,197.389038 229.339432,199.010376 229.339432,200.726440 
	C236.588699,200.726440 243.335373,200.726440 250.286591,200.726440 
	C250.286591,192.130295 250.286591,183.815216 250.286591,174.500137 
M173.485382,149.500290 
	C173.485382,140.433167 173.485382,131.366043 173.485382,122.434914 
	C166.426575,122.434914 160.172531,122.434914 153.736725,122.434914 
	C153.736725,124.770920 153.738159,126.763268 153.736526,128.755615 
	C153.724548,143.414978 153.631119,158.074997 153.747391,172.733337 
	C153.783630,177.302109 150.417496,179.590439 147.369125,180.638260 
	C145.586227,181.251099 142.246063,178.603668 140.230148,176.746078 
	C139.181641,175.779953 139.251205,173.349121 139.219086,171.572617 
	C139.029449,161.082474 139.217117,150.578995 138.763062,140.102295 
	C138.417328,132.125214 134.931885,125.476952 128.209274,120.348114 
	C122.811218,124.098862 117.542328,127.759865 111.805679,131.745865 
	C118.878082,137.487122 119.340836,145.076065 119.195389,152.897308 
	C119.099380,158.059723 119.704643,163.291260 119.070053,168.376297 
	C117.609871,180.076752 123.030022,188.050537 131.755569,194.797363 
	C140.468323,201.534317 142.456833,201.686569 151.243835,194.798676 
	C151.839249,194.331955 152.490311,193.936249 153.168427,193.471207 
	C153.168427,199.731445 153.804062,205.755081 152.886093,211.531845 
	C152.460876,214.207718 149.332092,216.919449 146.752274,218.532761 
	C145.860291,219.090546 142.776718,216.557297 140.961472,215.102493 
	C139.326385,213.792084 138.056900,212.025482 136.518768,210.342560 
	C131.346359,213.936142 126.471985,217.322662 121.275101,220.933243 
	C126.943588,229.125504 133.805542,234.790146 143.029785,237.286606 
	C144.410873,237.660385 146.034027,237.681107 147.432220,237.365143 
	C159.097382,234.729187 172.826523,218.916336 173.101624,206.963257 
	C173.534637,188.149292 173.387070,169.321976 173.485382,149.500290 
M279.727753,198.810226 
	C288.668732,204.425674 290.436737,204.466507 298.966156,198.334549 
	C302.467194,195.817581 305.645508,192.854279 308.999451,190.129471 
	C313.251312,186.675125 315.631256,182.135956 315.757446,176.765823 
	C315.995483,166.633728 316.236237,156.469620 315.647797,146.367050 
	C315.432556,142.671661 313.717896,138.289185 311.187073,135.669403 
	C306.383453,130.696976 300.611908,126.616287 295.022125,122.461555 
	C291.165619,119.595154 287.060425,120.005707 282.884369,122.415619 
	C268.993011,130.431992 259.351501,140.881958 261.390839,158.388412 
	C261.543732,159.700912 261.464264,161.058884 261.343506,162.382080 
	C259.916016,178.027359 264.917969,190.485779 279.727753,198.810226 
M423.118134,191.611267 
	C424.815521,189.402054 426.512939,187.192841 428.422272,184.707794 
	C423.023285,180.911942 418.068848,177.428635 412.903809,173.797256 
	C411.775269,175.945709 411.044159,177.616669 410.063751,179.125702 
	C409.076263,180.645691 407.974243,182.139740 406.688599,183.408234 
	C403.289856,186.761703 400.949463,186.623306 398.124084,182.755646 
	C394.725098,178.102783 394.506226,172.726349 394.661835,166.772629 
	C406.515900,166.772629 417.929657,166.772629 430.305298,166.772629 
	C429.666168,158.353943 429.262970,150.438950 428.338196,142.585358 
	C428.088562,140.465500 426.680481,138.070267 425.074219,136.597565 
	C419.827332,131.787079 414.391174,127.151550 408.742371,122.820992 
	C404.277313,119.397888 399.347687,119.739861 394.976471,123.158836 
	C389.884338,127.141624 384.631287,131.066467 380.267548,135.775772 
	C377.753571,138.488800 375.803711,142.600723 375.449432,146.261948 
	C374.635651,154.671143 375.068115,163.193756 374.782166,171.663162 
	C374.481659,180.562378 378.360718,187.125717 385.100281,192.652435 
	C399.965576,204.842514 404.093536,207.896454 423.118134,191.611267 
M474.194092,123.205658 
	C467.404602,119.020287 460.966675,119.869659 454.824402,124.593513 
	C452.584900,126.315872 450.289276,127.986397 448.201447,129.881317 
	C436.889526,140.148056 436.718048,148.890671 447.605042,159.871185 
	C449.113220,161.392319 450.777222,162.824890 452.572388,163.983444 
	C458.573395,167.856415 464.722046,171.502960 470.673309,175.448639 
	C471.732178,176.150681 472.992889,178.193344 472.669403,179.061371 
	C470.911621,183.778366 463.379211,185.231888 459.772156,181.652573 
	C457.452179,179.350372 455.415436,176.762741 453.103180,174.134140 
	C447.989777,177.661682 443.095978,181.037704 438.254089,184.377945 
	C441.405212,191.386322 449.109131,198.072113 457.312897,201.504868 
	C462.386078,203.627670 467.159943,203.403946 471.411835,200.000488 
	C476.326019,196.066940 481.189575,192.011917 485.648865,187.580719 
	C494.353821,178.930618 494.620239,172.450104 485.356140,164.408066 
	C478.278076,158.263687 469.861237,153.673904 462.143036,148.245926 
	C460.198944,146.878708 456.695190,145.791504 459.194641,142.209686 
	C461.717102,138.594925 465.266785,138.230774 468.444641,141.324799 
	C470.909332,143.724518 473.099792,146.405914 475.577789,149.145218 
	C480.670807,145.636032 485.554108,142.271332 490.570770,138.814743 
	C487.024963,131.533646 481.205322,127.276894 474.194092,123.205658 
M338.552765,94.362854 
	C333.229889,97.981865 327.907043,101.600876 323.821014,104.378952 
	C326.276703,111.423904 328.451111,117.661835 330.709656,124.141235 
	C327.125153,125.299515 324.821014,126.044052 322.547272,126.778778 
	C322.547272,130.510544 322.547272,133.946426 322.547272,137.600754 
	C324.974792,137.824570 327.189636,138.028793 329.712280,138.261398 
	C329.712280,149.723953 330.144104,160.872391 329.604431,171.973587 
	C328.908936,186.279907 336.634674,194.919586 347.930298,201.495850 
	C349.033478,202.138107 351.050659,202.542099 351.956940,201.969666 
	C356.969360,198.803741 361.768921,195.300781 367.036896,191.638336 
	C364.947235,190.501541 363.468658,189.762650 362.054382,188.916290 
	C356.303528,185.474716 350.818115,181.044006 350.361359,174.222000 
	C349.558350,162.227936 350.136932,150.141373 350.136932,137.651688 
	C355.463898,137.651688 360.532623,137.651688 365.632385,137.651688 
	C365.632385,132.295746 365.632385,127.391716 365.632385,122.053497 
	C360.254333,122.053497 355.160461,122.053497 349.723297,122.053497 
	C349.823944,111.227585 348.219849,101.381538 338.552765,94.362854 
z"/>
<path fill="#F8F8F8" opacity="1.000000" stroke="none" 
	d="
M36.518852,190.946014 
	C36.518833,194.412170 36.518833,197.388275 36.518833,200.685333 
	C29.817970,200.685333 23.418592,200.685333 16.466194,200.685333 
	C16.466194,195.472015 16.467604,190.180984 16.465906,184.889954 
	C16.462170,173.233353 16.427536,161.576645 16.463486,149.920166 
	C16.484177,143.211502 15.292432,136.991623 9.242650,131.948059 
	C14.337522,128.333282 19.062498,124.822914 23.998140,121.639114 
	C24.794516,121.125397 26.867378,121.664001 27.758724,122.416641 
	C29.622578,123.990417 31.091928,126.031418 32.798069,127.965248 
	C37.936569,125.514702 41.478165,118.659912 47.937660,121.120186 
	C53.061504,123.071732 57.464287,126.916435 62.670525,130.227966 
	C65.041504,128.315872 67.884941,125.826653 70.927635,123.611092 
	C76.685852,119.418198 79.694977,119.232506 85.267212,123.487465 
	C89.334312,126.593102 93.625023,129.866028 96.450798,133.998032 
	C98.907539,137.590408 100.318443,142.425690 100.653122,146.828659 
	C101.294998,155.272842 100.949608,163.801575 100.817535,172.292175 
	C100.704865,179.534546 101.792175,186.260468 108.089729,191.533691 
	C103.136147,194.999298 98.643242,198.413330 93.835472,201.303589 
	C92.722862,201.972443 89.965889,201.442551 88.937813,200.453583 
	C84.083031,195.783463 81.388969,189.843231 81.202644,183.120483 
	C80.889084,171.806580 81.095352,160.478134 80.772331,149.164688 
	C80.701805,146.694916 79.846275,143.862854 78.377159,141.944351 
	C77.281700,140.513779 74.418114,139.371918 72.694901,139.742538 
	C70.245544,140.269318 68.501564,142.042557 68.561203,145.554199 
	C68.843918,162.201599 68.678070,178.856644 68.672165,195.508957 
	C68.671585,197.145676 68.672089,198.782410 68.672089,200.712433 
	C61.934639,200.712433 55.546814,200.712433 48.712467,200.712433 
	C48.712467,183.342682 48.811104,166.078171 48.599621,148.817444 
	C48.569988,146.398529 47.486893,143.642044 46.014141,141.710861 
	C44.981609,140.356934 41.750858,139.023911 40.751171,139.656372 
	C38.861824,140.851669 36.784306,143.421860 36.694401,145.503174 
	C36.277977,155.143341 36.518337,164.811859 36.521168,174.470215 
	C36.522732,179.798798 36.519787,185.127380 36.518852,190.946014 
z"/>
<path fill="#F9F9F9" opacity="1.000000" stroke="none" 
	d="
M250.286591,175.000137 
	C250.286591,183.815216 250.286591,192.130295 250.286591,200.726440 
	C243.335373,200.726440 236.588699,200.726440 229.339432,200.726440 
	C229.339432,199.010376 229.339874,197.389038 229.339386,195.767715 
	C229.332687,173.603287 229.405670,151.438171 229.213593,129.275345 
	C229.190720,126.636299 228.180679,123.732315 226.801453,121.450943 
	C225.239899,118.867943 223.085068,115.586227 219.291611,117.231087 
	C215.301208,118.961334 211.819992,121.403473 211.842865,126.746216 
	C211.947693,151.237839 211.888977,175.730133 211.888977,200.615356 
	C205.092499,200.615356 198.390274,200.615356 191.174622,200.615356 
	C191.174622,198.524094 191.174057,196.410233 191.174698,194.296356 
	C191.179962,176.964783 191.102570,159.632645 191.219727,142.301834 
	C191.299026,130.569824 191.610031,118.850098 182.276215,109.404808 
	C188.620041,104.968231 194.443329,100.895691 200.714569,96.509880 
	C203.469147,99.696732 206.040710,102.671829 208.549454,105.574257 
	C211.995331,103.250107 215.329086,100.225220 219.245163,98.628540 
	C221.932938,97.532669 226.319183,97.171722 228.401520,98.653305 
	C235.133133,103.442818 241.584625,108.828529 247.229919,114.842583 
	C249.483002,117.242859 250.105804,121.870392 250.171280,125.507423 
	C250.465103,141.833725 250.291519,158.168457 250.286591,175.000137 
z"/>
<path fill="#F9F9F9" opacity="1.000000" stroke="none" 
	d="
M173.485352,150.000305 
	C173.387070,169.321976 173.534637,188.149292 173.101624,206.963257 
	C172.826523,218.916336 159.097382,234.729187 147.432220,237.365143 
	C146.034027,237.681107 144.410873,237.660385 143.029785,237.286606 
	C133.805542,234.790146 126.943588,229.125504 121.275101,220.933243 
	C126.471985,217.322662 131.346359,213.936142 136.518768,210.342560 
	C138.056900,212.025482 139.326385,213.792084 140.961472,215.102493 
	C142.776718,216.557297 145.860291,219.090546 146.752274,218.532761 
	C149.332092,216.919449 152.460876,214.207718 152.886093,211.531845 
	C153.804062,205.755081 153.168427,199.731445 153.168427,193.471207 
	C152.490311,193.936249 151.839249,194.331955 151.243835,194.798676 
	C142.456833,201.686569 140.468323,201.534317 131.755569,194.797363 
	C123.030022,188.050537 117.609871,180.076752 119.070053,168.376297 
	C119.704643,163.291260 119.099380,158.059723 119.195389,152.897308 
	C119.340836,145.076065 118.878082,137.487122 111.805679,131.745865 
	C117.542328,127.759865 122.811218,124.098862 128.209274,120.348114 
	C134.931885,125.476952 138.417328,132.125214 138.763062,140.102295 
	C139.217117,150.578995 139.029449,161.082474 139.219086,171.572617 
	C139.251205,173.349121 139.181641,175.779953 140.230148,176.746078 
	C142.246063,178.603668 145.586227,181.251099 147.369125,180.638260 
	C150.417496,179.590439 153.783630,177.302109 153.747391,172.733337 
	C153.631119,158.074997 153.724548,143.414978 153.736526,128.755615 
	C153.738159,126.763268 153.736725,124.770920 153.736725,122.434914 
	C160.172531,122.434914 166.426575,122.434914 173.485382,122.434914 
	C173.485382,131.366043 173.485382,140.433167 173.485352,150.000305 
z"/>
<path fill="#FDFDFD" opacity="1.000000" stroke="none" 
	d="
M77.517494,81.669556 
	C71.208832,83.021072 64.900169,84.372581 58.443150,85.755875 
	C58.226471,84.488358 58.020882,83.845375 58.020428,83.202248 
	C58.003967,59.887333 58.006611,36.572414 58.006611,13.444085 
	C65.563263,11.592400 73.315971,10.766099 80.124741,7.784325 
	C91.676773,2.725328 101.754417,5.686245 112.048431,10.779427 
	C114.519951,12.002265 115.225082,13.405446 115.211441,16.086731 
	C115.096191,38.739052 115.152885,61.392246 114.740280,84.426193 
	C112.883713,84.200882 111.444794,83.594559 109.725677,82.769958 
	C98.920326,78.004570 88.323158,76.063835 77.517494,81.669556 
z"/>
<path fill="#FEFEFE" opacity="1.000000" stroke="none" 
	d="
M118.170273,80.992134 
	C118.116600,59.026993 118.059883,37.061859 118.011658,15.096705 
	C118.001083,10.280479 122.344154,10.441507 125.701904,9.094976 
	C126.820419,8.867063 127.409462,8.418845 127.998497,7.970627 
	C135.400620,4.461148 142.749786,4.146353 150.646790,6.905680 
	C157.600082,9.335268 164.928986,10.802298 172.189240,12.183334 
	C174.931290,12.704925 175.461319,13.768546 175.043716,16.943628 
	C174.937119,40.204269 174.932343,62.580318 174.506210,85.031242 
	C170.490738,84.546631 166.827621,84.259964 163.316559,83.372032 
	C155.504562,81.396431 147.768661,79.119987 139.932648,76.607216 
	C135.617950,74.562920 132.697586,75.817375 131.876862,79.677444 
	C129.110550,80.574203 126.664467,81.334969 123.861511,81.940231 
	C121.726517,81.520538 119.948395,81.256332 118.170273,80.992134 
M150.371857,74.525032 
	C150.159409,74.470528 149.946960,74.416023 149.734512,74.361519 
	C149.871002,74.495453 150.007492,74.629387 150.371857,74.525032 
M144.585068,75.516762 
	C144.585068,75.516762 144.476227,75.580833 144.585068,75.516762 
M132.516830,73.409576 
	C132.516830,73.409576 132.586090,73.523712 132.516830,73.409576 
z"/>
<path fill="#F7F7F7" opacity="1.000000" stroke="none" 
	d="
M279.424652,198.610870 
	C264.917969,190.485779 259.916016,178.027359 261.343506,162.382080 
	C261.464264,161.058884 261.543732,159.700912 261.390839,158.388412 
	C259.351501,140.881958 268.993011,130.431992 282.884369,122.415619 
	C287.060425,120.005707 291.165619,119.595154 295.022125,122.461555 
	C300.611908,126.616287 306.383453,130.696976 311.187073,135.669403 
	C313.717896,138.289185 315.432556,142.671661 315.647797,146.367050 
	C316.236237,156.469620 315.995483,166.633728 315.757446,176.765823 
	C315.631256,182.135956 313.251312,186.675125 308.999451,190.129471 
	C305.645508,192.854279 302.467194,195.817581 298.966156,198.334549 
	C290.436737,204.466507 288.668732,204.425674 279.424652,198.610870 
M280.738495,154.622757 
	C280.807037,160.784073 280.658478,166.957642 281.005432,173.103241 
	C281.349609,179.200089 285.807068,185.746277 289.079895,185.695465 
	C292.397034,185.643967 296.814789,179.108505 297.042023,173.000824 
	C297.326385,165.357162 297.610138,157.645081 296.874298,150.061508 
	C296.521759,146.428574 294.141785,142.820450 292.085052,139.578568 
	C290.403809,136.928574 288.047882,137.584625 285.736481,139.568130 
	C281.303650,143.372131 280.919830,148.439423 280.738495,154.622757 
z"/>
<path fill="#F8F8F8" opacity="1.000000" stroke="none" 
	d="
M422.879456,191.873932 
	C404.093536,207.896454 399.965576,204.842514 385.100281,192.652435 
	C378.360718,187.125717 374.481659,180.562378 374.782166,171.663162 
	C375.068115,163.193756 374.635651,154.671143 375.449432,146.261948 
	C375.803711,142.600723 377.753571,138.488800 380.267548,135.775772 
	C384.631287,131.066467 389.884338,127.141624 394.976471,123.158836 
	C399.347687,119.739861 404.277313,119.397888 408.742371,122.820992 
	C414.391174,127.151550 419.827332,131.787079 425.074219,136.597565 
	C426.680481,138.070267 428.088562,140.465500 428.338196,142.585358 
	C429.262970,150.438950 429.666168,158.353943 430.305298,166.772629 
	C417.929657,166.772629 406.515900,166.772629 394.661835,166.772629 
	C394.506226,172.726349 394.725098,178.102783 398.124084,182.755646 
	C400.949463,186.623306 403.289856,186.761703 406.688599,183.408234 
	C407.974243,182.139740 409.076263,180.645691 410.063751,179.125702 
	C411.044159,177.616669 411.775269,175.945709 412.903809,173.797256 
	C418.068848,177.428635 423.023285,180.911942 428.422272,184.707794 
	C426.512939,187.192841 424.815521,189.402054 422.879456,191.873932 
M408.948517,142.957352 
	C406.337463,141.241013 402.832153,137.556747 401.314423,138.246414 
	C398.711273,139.429352 397.066376,143.202362 395.574432,146.167343 
	C394.688873,147.927277 394.866150,150.222015 394.549927,152.383041 
	C400.135284,152.383041 405.123627,152.383041 410.649384,152.383041 
	C410.122742,149.199661 409.669922,146.462448 408.948517,142.957352 
M408.662598,164.997559 
	C413.750397,164.997559 418.838165,164.997559 423.925964,164.997559 
	C423.921265,164.782166 423.916565,164.566757 423.911865,164.351364 
	C416.708557,164.351364 409.505249,164.351364 402.301941,164.351364 
	C402.303284,164.566696 402.304657,164.782043 402.306030,164.997375 
	C404.113312,164.997375 405.920624,164.997375 408.662598,164.997559 
z"/>
<path fill="#F7F7F7" opacity="1.000000" stroke="none" 
	d="
M474.518555,123.391121 
	C481.205322,127.276894 487.024963,131.533646 490.570770,138.814743 
	C485.554108,142.271332 480.670807,145.636032 475.577789,149.145218 
	C473.099792,146.405914 470.909332,143.724518 468.444641,141.324799 
	C465.266785,138.230774 461.717102,138.594925 459.194641,142.209686 
	C456.695190,145.791504 460.198944,146.878708 462.143036,148.245926 
	C469.861237,153.673904 478.278076,158.263687 485.356140,164.408066 
	C494.620239,172.450104 494.353821,178.930618 485.648865,187.580719 
	C481.189575,192.011917 476.326019,196.066940 471.411835,200.000488 
	C467.159943,203.403946 462.386078,203.627670 457.312897,201.504868 
	C449.109131,198.072113 441.405212,191.386322 438.254089,184.377945 
	C443.095978,181.037704 447.989777,177.661682 453.103180,174.134140 
	C455.415436,176.762741 457.452179,179.350372 459.772156,181.652573 
	C463.379211,185.231888 470.911621,183.778366 472.669403,179.061371 
	C472.992889,178.193344 471.732178,176.150681 470.673309,175.448639 
	C464.722046,171.502960 458.573395,167.856415 452.572388,163.983444 
	C450.777222,162.824890 449.113220,161.392319 447.605042,159.871185 
	C436.718048,148.890671 436.889526,140.148056 448.201447,129.881317 
	C450.289276,127.986397 452.584900,126.315872 454.824402,124.593513 
	C460.966675,119.869659 467.404602,119.020287 474.518555,123.391121 
z"/>
<path fill="#F7F7F7" opacity="1.000000" stroke="none" 
	d="
M338.892517,94.425858 
	C348.219849,101.381538 349.823944,111.227585 349.723297,122.053497 
	C355.160461,122.053497 360.254333,122.053497 365.632385,122.053497 
	C365.632385,127.391716 365.632385,132.295746 365.632385,137.651688 
	C360.532623,137.651688 355.463898,137.651688 350.136932,137.651688 
	C350.136932,150.141373 349.558350,162.227936 350.361359,174.222000 
	C350.818115,181.044006 356.303528,185.474716 362.054382,188.916290 
	C363.468658,189.762650 364.947235,190.501541 367.036896,191.638336 
	C361.768921,195.300781 356.969360,198.803741 351.956940,201.969666 
	C351.050659,202.542099 349.033478,202.138107 347.930298,201.495850 
	C336.634674,194.919586 328.908936,186.279907 329.604431,171.973587 
	C330.144104,160.872391 329.712280,149.723953 329.712280,138.261398 
	C327.189636,138.028793 324.974792,137.824570 322.547272,137.600754 
	C322.547272,133.946426 322.547272,130.510544 322.547272,126.778778 
	C324.821014,126.044052 327.125153,125.299515 330.709656,124.141235 
	C328.451111,117.661835 326.276703,111.423904 323.821014,104.378952 
	C327.907043,101.600876 333.229889,97.981865 338.892517,94.425858 
z"/>
<path fill="#F5F5F5" opacity="1.000000" stroke="none" 
	d="
M118.097351,81.390274 
	C119.948395,81.256332 121.726517,81.520538 123.828766,82.312012 
	C125.699944,82.873558 127.365723,83.301453 128.774292,82.876579 
	C136.454178,80.560036 143.948883,80.317726 151.762344,82.773483 
	C158.704178,84.955284 165.957092,86.161896 173.094910,87.695625 
	C174.979355,88.100555 177.478745,88.795013 176.532501,84.695076 
	C176.759186,81.764458 176.828720,79.278038 176.839600,76.791367 
	C176.926682,56.884552 177.002686,36.977692 177.082077,17.070848 
	C178.242508,17.070848 179.402939,17.070848 180.789276,17.070848 
	C180.789276,43.211529 180.789276,69.282265 180.789276,96.258652 
	C173.297241,94.630951 165.773849,93.930130 158.981918,91.323448 
	C145.490509,86.145538 132.883392,88.008888 120.455986,94.046211 
	C117.319412,95.569969 114.795906,95.507423 111.644844,94.015678 
	C107.466927,92.037804 103.018456,89.999649 98.516602,89.492073 
	C92.401657,88.802612 85.996269,88.786240 79.949577,89.833305 
	C70.508263,91.468201 61.263371,94.237427 51.368225,96.665154 
	C51.368225,69.754471 51.368225,43.730415 51.368225,17.272942 
	C52.464378,17.173717 53.848145,17.048456 55.709755,16.879942 
	C55.709755,40.552864 55.709755,63.945465 55.709755,88.628517 
	C63.722595,86.788750 71.046654,85.107132 79.090668,83.251617 
	C89.561859,78.924500 99.035934,81.473373 108.746735,84.526749 
	C110.988007,85.542519 112.982552,86.295784 114.977089,87.049049 
	C118.515427,87.142166 118.515427,87.142166 118.097351,81.390274 
z"/>
<path fill="#5F5F5F" opacity="1.000000" stroke="none" 
	d="
M176.769867,17.002523 
	C177.002686,36.977692 176.926682,56.884552 176.839600,76.791367 
	C176.828720,79.278038 176.759186,81.764458 176.293152,84.685303 
	C175.562180,85.026649 175.248199,84.972229 174.927551,84.956367 
	C174.932343,62.580318 174.937119,40.204269 175.061417,17.366661 
	C175.606522,16.914801 176.032089,16.924500 176.769867,17.002523 
z"/>
<path fill="#292929" opacity="1.000000" stroke="none" 
	d="
M108.499992,84.264252 
	C99.035934,81.473373 89.561859,78.924500 79.411018,83.054718 
	C78.707321,82.700897 78.403214,82.370087 77.808304,81.854416 
	C88.323158,76.063835 98.920326,78.004570 109.560020,83.068085 
	C109.283028,83.811081 108.891510,84.037666 108.499992,84.264252 
z"/>
<path fill="#3F3F3F" opacity="1.000000" stroke="none" 
	d="
M108.746735,84.526749 
	C108.891510,84.037666 109.283028,83.811081 109.840210,83.286362 
	C111.444794,83.594559 112.883713,84.200882 114.651268,84.885361 
	C115.003136,85.426842 115.026367,85.890175 115.013344,86.701279 
	C112.982552,86.295784 110.988007,85.542519 108.746735,84.526749 
z"/>
<path fill="#F5F5F5" opacity="1.000000" stroke="none" 
	d="
M127.698669,7.918429 
	C127.409462,8.418845 126.820419,8.867063 126.076233,9.057262 
	C126.413673,8.488239 126.906258,8.177235 127.698669,7.918429 
z"/>
<path fill="#2A2A2A" opacity="1.000000" stroke="none" 
	d="
M174.506210,85.031242 
	C175.248199,84.972229 175.562180,85.026649 176.108826,85.129395 
	C177.478745,88.795013 174.979355,88.100555 173.094910,87.695625 
	C165.957092,86.161896 158.704178,84.955284 151.762344,82.773483 
	C143.948883,80.317726 136.454178,80.560036 128.774292,82.876579 
	C127.365723,83.301453 125.699944,82.873558 124.185638,82.467514 
	C126.664467,81.334969 129.110550,80.574203 132.274292,79.665344 
	C135.328537,78.666893 137.665146,77.816521 140.001740,76.966156 
	C147.768661,79.119987 155.504562,81.396431 163.316559,83.372032 
	C166.827621,84.259964 170.490738,84.546631 174.506210,85.031242 
z"/>
<path fill="#F5F5F5" opacity="1.000000" stroke="none" 
	d="
M139.932648,76.607216 
	C137.665146,77.816521 135.328537,78.666893 132.594513,79.529358 
	C132.697586,75.817375 135.617950,74.562920 139.932648,76.607216 
z"/>
<path fill="#F5F5F5" opacity="1.000000" stroke="none" 
	d="
M150.257935,74.644173 
	C150.007492,74.629387 149.871002,74.495453 149.734512,74.361519 
	C149.946960,74.416023 150.159409,74.470528 150.257935,74.644173 
z"/>
<path fill="#F5F5F5" opacity="1.000000" stroke="none" 
	d="
M144.530640,75.548798 
	C144.476227,75.580833 144.585068,75.516762 144.530640,75.548798 
z"/>
<path fill="#F5F5F5" opacity="1.000000" stroke="none" 
	d="
M132.551453,73.466644 
	C132.586090,73.523712 132.516830,73.409576 132.551453,73.466644 
z"/>
<path fill="#050505" opacity="1.000000" stroke="none" 
	d="
M280.761932,154.144928 
	C280.919830,148.439423 281.303650,143.372131 285.736481,139.568130 
	C288.047882,137.584625 290.403809,136.928574 292.085052,139.578568 
	C294.141785,142.820450 296.521759,146.428574 296.874298,150.061508 
	C297.610138,157.645081 297.326385,165.357162 297.042023,173.000824 
	C296.814789,179.108505 292.397034,185.643967 289.079895,185.695465 
	C285.807068,185.746277 281.349609,179.200089 281.005432,173.103241 
	C280.658478,166.957642 280.807037,160.784073 280.761932,154.144928 
z"/>
<path fill="#0F0F0F" opacity="1.000000" stroke="none" 
	d="
M409.082825,143.341278 
	C409.669922,146.462448 410.122742,149.199661 410.649384,152.383041 
	C405.123627,152.383041 400.135284,152.383041 394.549927,152.383041 
	C394.866150,150.222015 394.688873,147.927277 395.574432,146.167343 
	C397.066376,143.202362 398.711273,139.429352 401.314423,138.246414 
	C402.832153,137.556747 406.337463,141.241013 409.082825,143.341278 
z"/>
<path fill="#F3F3F3" opacity="1.000000" stroke="none" 
	d="
M408.195251,164.997467 
	C405.920624,164.997375 404.113312,164.997375 402.306030,164.997375 
	C402.304657,164.782043 402.303284,164.566696 402.301941,164.351364 
	C409.505249,164.351364 416.708557,164.351364 423.911865,164.351364 
	C423.916565,164.566757 423.921265,164.782166 423.925964,164.997559 
	C418.838165,164.997559 413.750397,164.997559 408.195251,164.997467 
z"/>
</svg>


